<svg width="118" height="118" viewBox="0 0 118 118" fill="none" xmlns="http://www.w3.org/2000/svg">
<path d="M9.83334 88.5C9.83334 80.9264 9.83334 77.1391 11.5381 74.3572C12.492 72.8006 13.8007 71.4918 15.3574 70.5379C18.1393 68.8333 21.9262 68.8333 29.5 68.8333C37.0738 68.8333 40.8608 68.8333 43.6427 70.5379C45.1993 71.4918 46.508 72.8006 47.4619 74.3572C49.1667 77.1391 49.1667 80.9264 49.1667 88.5C49.1667 96.0736 49.1667 99.8609 47.4619 102.643C46.508 104.199 45.1993 105.508 43.6427 106.462C40.8608 108.167 37.0738 108.167 29.5 108.167C21.9262 108.167 18.1393 108.167 15.3574 106.462C13.8007 105.508 12.492 104.199 11.5381 102.643C9.83334 99.8609 9.83334 96.0736 9.83334 88.5Z" stroke="#163300" stroke-width="8.5"/>
<path d="M68.8333 88.5C68.8333 80.9264 68.8333 77.1391 70.538 74.3572C71.4918 72.8006 72.8006 71.4918 74.3572 70.5379C77.1391 68.8333 80.9264 68.8333 88.5 68.8333C96.0736 68.8333 99.8609 68.8333 102.643 70.5379C104.199 71.4918 105.508 72.8006 106.462 74.3572C108.167 77.1391 108.167 80.9264 108.167 88.5C108.167 96.0736 108.167 99.8609 106.462 102.643C105.508 104.199 104.199 105.508 102.643 106.462C99.8609 108.167 96.0736 108.167 88.5 108.167C80.9264 108.167 77.1391 108.167 74.3572 106.462C72.8006 105.508 71.4918 104.199 70.538 102.643C68.8333 99.8609 68.8333 96.0736 68.8333 88.5Z" stroke="#163300" stroke-width="8.5"/>
<path d="M9.83334 29.5C9.83334 21.9262 9.83334 18.1393 11.5381 15.3574C12.492 13.8007 13.8007 12.492 15.3574 11.5381C18.1393 9.83333 21.9262 9.83333 29.5 9.83333C37.0738 9.83333 40.8608 9.83333 43.6427 11.5381C45.1993 12.492 46.508 13.8007 47.4619 15.3574C49.1667 18.1393 49.1667 21.9262 49.1667 29.5C49.1667 37.0738 49.1667 40.8607 47.4619 43.6426C46.508 45.1993 45.1993 46.508 43.6427 47.4619C40.8608 49.1667 37.0738 49.1667 29.5 49.1667C21.9262 49.1667 18.1393 49.1667 15.3574 47.4619C13.8007 46.508 12.492 45.1993 11.5381 43.6426C9.83334 40.8607 9.83334 37.0738 9.83334 29.5Z" stroke="#163300" stroke-width="8.5"/>
<path d="M68.8333 29.5C68.8333 21.9262 68.8333 18.1393 70.538 15.3574C71.4918 13.8007 72.8006 12.492 74.3572 11.5381C77.1391 9.83333 80.9264 9.83333 88.5 9.83333C96.0736 9.83333 99.8609 9.83333 102.643 11.5381C104.199 12.492 105.508 13.8007 106.462 15.3574C108.167 18.1393 108.167 21.9262 108.167 29.5C108.167 37.0738 108.167 40.8607 106.462 43.6426C105.508 45.1993 104.199 46.508 102.643 47.4619C99.8609 49.1667 96.0736 49.1667 88.5 49.1667C80.9264 49.1667 77.1391 49.1667 74.3572 47.4619C72.8006 46.508 71.4918 45.1993 70.538 43.6426C68.8333 40.8607 68.8333 37.0738 68.8333 29.5Z" stroke="#163300" stroke-width="8.5"/>
</svg>
