<svg width="118" height="118" viewBox="0 0 118 118" fill="none" xmlns="http://www.w3.org/2000/svg">
<path d="M60.9736 40.7983L75.3297 36.0129C79.6869 34.5604 81.8659 33.8342 83.016 34.9842C84.166 36.1343 83.4398 38.313 81.9869 42.6703L77.2015 57.0265C74.7265 64.4516 73.4889 68.1642 70.8266 70.8265C68.1642 73.4889 64.4516 74.7264 57.0265 77.2015L42.6703 81.9869C38.313 83.4398 36.1343 84.166 34.9843 83.0159C33.8342 81.8659 34.5604 79.6869 36.0129 75.3297L40.7983 60.9735C43.2734 53.5484 44.5109 49.8358 47.1733 47.1733C49.8358 44.5109 53.5484 43.2734 60.9736 40.7983Z" stroke="#163300" stroke-width="8.5" stroke-linecap="round" stroke-linejoin="round"/>
<path d="M59 59L58.9685 59.0315" stroke="#163300" stroke-width="8.5" stroke-linecap="round" stroke-linejoin="round"/>
<path d="M12.2917 59C12.2917 36.9815 12.2917 25.9722 19.1319 19.1319C25.9722 12.2917 36.9815 12.2917 59 12.2917C81.0183 12.2917 92.0277 12.2917 98.8683 19.1319C105.708 25.9722 105.708 36.9815 105.708 59C105.708 81.0183 105.708 92.0277 98.8683 98.8683C92.0277 105.708 81.0183 105.708 59 105.708C36.9815 105.708 25.9722 105.708 19.1319 98.8683C12.2917 92.0277 12.2917 81.0183 12.2917 59Z" stroke="#163300" stroke-width="8.5" stroke-linecap="round" stroke-linejoin="round"/>
</svg>
